<?xml version="1.0" encoding="UTF-8" standalone="no"?>
<!DOCTYPE svg PUBLIC "-//W3C//DTD SVG 1.1//EN" "http://www.w3.org/Graphics/SVG/1.1/DTD/svg11.dtd">
<svg width="100%" height="100%" viewBox="0 0 2048 2048" version="1.1" xmlns="http://www.w3.org/2000/svg" xmlns:xlink="http://www.w3.org/1999/xlink" xml:space="preserve" xmlns:serif="http://www.serif.com/" style="fill-rule:evenodd;clip-rule:evenodd;stroke-linejoin:round;stroke-miterlimit:2;">
    <g transform="matrix(1,0,0,1,-2476.19,-2627.76)">
        <g id="favicon-j" transform="matrix(1.01208,0,0,1,-354.295,2627.76)">
            <rect x="2796.71" y="0" width="2023.56" height="2048" style="fill:none;"/>
            <g id="base" transform="matrix(0.988067,0,0,1,2796.71,0)">
                <path d="M2048,409.6L2048,1638.4C2048,1864.46 1864.46,2048 1638.4,2048L409.6,2048C183.536,2048 0,1864.46 0,1638.4L0,409.6C0,183.536 183.536,0 409.6,0L1638.4,0C1864.46,0 2048,183.536 2048,409.6Z" style="fill:rgb(1,121,111);"/>
            </g>
            <g id="logo" transform="matrix(0.988067,0,0,1,2670.18,128.457)">
                <g transform="matrix(1,-0.000291984,0.000291984,1,-0.256912,16.2336)">
                    <path d="M480,1296.71C480,1347.98 521.455,1389.6 572.727,1389.81C648.839,1390.11 760.401,1390.56 862.975,1390.97C931.047,1391.24 996.425,1364.39 1044.66,1316.35C1092.89,1268.32 1120,1203.05 1120,1134.97L1120,1119.53C1120,1068.61 1099.77,1019.77 1063.76,983.764C986.833,906.833 847.177,767.177 749.279,669.279C730.974,650.974 725.499,623.444 735.408,599.528C745.317,575.612 768.657,560.02 794.544,560.025C857.766,560.035 924.744,560.045 962.202,560.051C968.102,560.052 973.524,556.806 976.31,551.604C979.095,546.403 978.791,540.09 975.52,535.18C951.77,499.533 908.168,434.089 883.146,396.531C871.278,378.719 851.292,368.018 829.888,368.017C821.153,368.016 811.067,368.016 800.015,368.015C732.117,368.011 666.998,394.981 618.986,442.99C570.973,491 544,556.117 544,624.015L544,640.471C544,691.393 564.229,740.229 600.236,776.236C677.174,853.174 816.847,992.847 914.745,1090.75C933.049,1109.05 938.525,1136.58 928.619,1160.49C918.713,1184.41 895.376,1200 869.49,1200C775.192,1200 657.57,1200 576.396,1200C550.83,1200 526.311,1210.16 508.234,1228.23C490.156,1246.31 480,1270.83 480,1296.4L480,1296.71Z" style="fill:rgb(247,245,240);"/>
                </g>
                <g transform="matrix(0.954545,0,0,1,55.3066,16)">
                    <path d="M1280.69,1391.09C1226.41,1391.02 1182.44,1349 1182.44,1297.19L1182.44,624C1182.44,588.654 1152.42,560 1115.39,560C1104.64,560 1093.88,560 1084.23,560C1061.81,560 1040.88,549.306 1028.44,531.501C1002.22,493.954 956.517,428.519 931.623,392.875C928.194,387.965 927.875,381.653 930.792,376.45C933.709,371.248 939.388,368 945.57,368C1071.44,368 1543.69,368 1752.53,368C1779.15,368 1804.69,378.096 1823.51,396.067C1842.34,414.039 1852.92,438.413 1852.92,463.828C1852.92,463.829 1852.92,463.829 1852.92,463.83C1852.92,489.336 1842.3,513.797 1823.41,531.832C1804.51,549.868 1778.89,560 1752.17,560L1450.63,560C1413.6,560 1383.58,588.654 1383.58,624L1383.58,1293.1C1383.58,1319.11 1372.75,1344.05 1353.47,1362.43C1334.2,1380.81 1308.06,1391.12 1280.81,1391.09C1280.77,1391.09 1280.73,1391.09 1280.69,1391.09Z" style="fill:rgb(247,245,240);"/>
                </g>
            </g>
        </g>
    </g>
</svg>
