<?xml version="1.0" encoding="UTF-8" standalone="no"?>
<!DOCTYPE svg PUBLIC "-//W3C//DTD SVG 1.1//EN" "http://www.w3.org/Graphics/SVG/1.1/DTD/svg11.dtd">
<svg width="100%" height="100%" viewBox="0 0 2048 2048" version="1.1" xmlns="http://www.w3.org/2000/svg" xmlns:xlink="http://www.w3.org/1999/xlink" xml:space="preserve" xmlns:serif="http://www.serif.com/" style="fill-rule:evenodd;clip-rule:evenodd;stroke-linejoin:round;stroke-miterlimit:2;">
    <g transform="matrix(1,0,0,1,-2476.19,0)">
        <g id="favicon" transform="matrix(1.01208,0,0,1,-354.295,0)">
            <rect x="2796.71" y="0" width="2023.56" height="2048" style="fill:none;"/>
            <g id="base" transform="matrix(0.988067,0,0,1,2796.71,0)">
                <path d="M2048,409.6L2048,1638.4C2048,1864.46 1864.46,2048 1638.4,2048L409.6,2048C183.536,2048 0,1864.46 0,1638.4L0,409.6C0,183.536 183.536,0 409.6,0L1638.4,0C1864.46,0 2048,183.536 2048,409.6Z" style="fill:rgb(1,121,111);"/>
            </g>
            <g id="logo" transform="matrix(0.988067,0,0,1,2638.62,178.605)">
                <g transform="matrix(1.09302,0,0,1.09302,-92.6512,-116.465)">
                    <path d="M1247.14,384C1185.86,430.241 1141.7,497.978 1125.89,576L802.369,576C776.082,576 752.467,592.075 742.828,616.531C733.188,640.987 739.483,668.851 758.701,686.788L1059.01,967.071C1094.52,1000.22 1116.02,1045.46 1119.5,1093.58L1119.5,1136.13C1111.18,1270 999.967,1376 864,1376L576,1376C522.981,1376 480,1333.02 480,1280C480,1226.98 522.981,1184 576,1184L861.631,1184C887.918,1184 911.532,1167.92 921.172,1143.47C930.812,1119.01 924.517,1091.15 905.299,1073.21L604.995,792.929C566.089,756.616 544,705.785 544,652.566L544,640C544,498.615 658.615,384 800,384L1247.14,384Z" style="fill:white;"/>
                </g>
                <g transform="matrix(1.04334,0,0,1.09302,-33.8266,-116.465)">
                    <path d="M1280,1376C1226.98,1376 1184,1334.97 1184,1284.36L1184,618.213C1184,556.096 1209.85,496.523 1255.87,452.599C1301.88,408.676 1364.29,384 1429.37,384L1787.43,384C1842.97,384 1888,426.981 1888,480C1888,480 1888,480 1888,480C1888,533.019 1842.97,576 1787.43,576L1437.34,576C1421.07,576 1405.47,582.169 1393.97,593.15C1382.46,604.131 1376,619.024 1376,634.553L1376,1284.36C1376,1308.67 1365.89,1331.98 1347.88,1349.16C1329.88,1366.35 1305.46,1376 1280,1376L1280,1376Z" style="fill:white;"/>
                </g>
            </g>
        </g>
    </g>
</svg>
