<?xml version="1.0" encoding="UTF-8" standalone="no"?>
<!DOCTYPE svg PUBLIC "-//W3C//DTD SVG 1.1//EN" "http://www.w3.org/Graphics/SVG/1.1/DTD/svg11.dtd">
<svg width="100%" height="100%" viewBox="0 0 2048 2048" version="1.1" xmlns="http://www.w3.org/2000/svg" xmlns:xlink="http://www.w3.org/1999/xlink" xml:space="preserve" xmlns:serif="http://www.serif.com/" style="fill-rule:evenodd;clip-rule:evenodd;stroke-linejoin:round;stroke-miterlimit:2;">
    <g transform="matrix(1,0,0,1,-14618.2,-16)">
        <g id="logo-d" transform="matrix(1,0,0,1,14618.2,16)">
            <rect x="0" y="0" width="2048" height="2048" style="fill:none;"/>
            <g id="logo" transform="matrix(1,0,0,1,-128,128)">
                <g transform="matrix(0.954545,0,0,1,55.3066,16)">
                    <path d="M1280.69,1391.09C1226.41,1391.02 1182.44,1349 1182.44,1297.19C1182.44,1126.59 1182.44,769.682 1182.44,624C1182.44,588.654 1152.42,560 1115.39,560C1009.07,560 813.679,560 813.679,560L813.679,368C813.679,368 1491.55,368 1752.35,368C1807.89,368 1852.92,410.981 1852.92,464L1852.92,464C1852.92,517.019 1807.89,560 1752.35,560C1661.23,560 1529.51,560 1450.63,560C1413.6,560 1383.58,588.654 1383.58,624L1383.58,1293.1C1383.58,1319.11 1372.75,1344.05 1353.47,1362.43C1334.2,1380.81 1308.06,1391.12 1280.81,1391.09C1280.77,1391.09 1280.73,1391.09 1280.69,1391.09Z" style="fill:rgb(1,121,111);"/>
                </g>
                <g transform="matrix(0.944902,0,0,1.10433,-11149.9,80.4658)">
                    <rect x="12816" y="274.858" width="338.659" height="173.861" style="fill:url(#_Radial1);"/>
                </g>
                <g transform="matrix(1,0,0,1,1.81899e-12,16)">
                    <path d="M480,1296.71C480,1347.98 521.455,1389.6 572.727,1389.81C648.839,1390.11 760.401,1390.56 862.975,1390.97C931.047,1391.24 996.425,1364.39 1044.66,1316.35C1092.89,1268.32 1120,1203.05 1120,1134.97C1120,1129.69 1120,1124.54 1120,1119.53C1120,1068.61 1099.77,1019.77 1063.76,983.764C986.826,906.826 847.153,767.153 749.255,669.255C730.951,650.951 725.475,623.423 735.381,599.508C745.287,575.593 768.624,560 794.51,560L992,560C1017.46,560 1041.88,549.886 1059.88,531.882C1077.89,513.879 1088,489.461 1088,464C1088,464 1088,464 1088,464C1088,410.981 1045.02,368 992,368C930.524,368 879.611,368 800,368C658.615,368 544,482.615 544,624C544,629.64 544,635.141 544,640.471C544,691.393 564.229,740.229 600.236,776.236C677.174,853.174 816.847,992.847 914.745,1090.75C933.049,1109.05 938.525,1136.58 928.619,1160.49C918.713,1184.41 895.376,1200 869.49,1200C775.192,1200 657.57,1200 576.396,1200C550.83,1200 526.311,1210.16 508.234,1228.23C490.156,1246.31 480,1270.83 480,1296.4C480,1296.5 480,1296.61 480,1296.71Z" style="fill:rgb(1,121,111);"/>
                </g>
            </g>
        </g>
    </g>
    <defs>
        <radialGradient id="_Radial1" cx="0" cy="0" r="1" gradientUnits="userSpaceOnUse" gradientTransform="matrix(253.995,1.02946e-13,-1.50395e-13,173.861,12900.7,361.789)"><stop offset="0" style="stop-color:rgb(0,26,24);stop-opacity:1"/><stop offset="1" style="stop-color:rgb(1,121,111);stop-opacity:0"/></radialGradient>
    </defs>
</svg>
