<?xml version="1.0" encoding="UTF-8" standalone="no"?>
<!DOCTYPE svg PUBLIC "-//W3C//DTD SVG 1.1//EN" "http://www.w3.org/Graphics/SVG/1.1/DTD/svg11.dtd">
<svg width="100%" height="100%" viewBox="0 0 2048 2048" version="1.1" xmlns="http://www.w3.org/2000/svg" xmlns:xlink="http://www.w3.org/1999/xlink" xml:space="preserve" xmlns:serif="http://www.serif.com/" style="fill-rule:evenodd;clip-rule:evenodd;stroke-linejoin:round;stroke-miterlimit:2;">
    <g transform="matrix(1,0,0,1,-24432,-16)">
        <g id="logo-h" transform="matrix(1,0,0,1,24432,16)">
            <rect x="0" y="0" width="2048" height="2048" style="fill:none;"/>
            <g id="logo" transform="matrix(1,0,0,1,-128,128)">
                <g transform="matrix(1,-0.000291984,0.000291984,1,-0.256912,16.2336)">
                    <path d="M480,1296.71C480,1347.98 521.455,1389.6 572.727,1389.81C648.839,1390.11 760.401,1390.56 862.975,1390.97C931.047,1391.24 996.425,1364.39 1044.66,1316.35C1092.89,1268.32 1120,1203.05 1120,1134.97C1120,1129.69 1120,1124.54 1120,1119.53C1120,1068.61 1099.77,1019.77 1063.76,983.764C986.831,906.831 847.172,767.172 749.275,669.275C730.97,650.97 725.495,623.44 735.403,599.524C745.311,575.609 768.651,560.017 794.538,560.02C834.178,560.025 872.753,560.03 898.169,560.034C917.133,560.036 935.122,551.628 947.284,537.077C977.188,501.299 1034.73,432.45 1066.23,394.768C1070.21,390.003 1071.08,383.365 1068.45,377.738C1065.82,372.111 1060.18,368.513 1053.97,368.507C1002.34,368.455 899.877,368.354 800.254,368.255C732.315,368.187 667.135,395.129 619.071,443.145C571.006,491.162 544,556.315 544,624.255C544,629.806 544,635.221 544,640.471C544,691.393 564.229,740.229 600.236,776.236C677.174,853.174 816.847,992.847 914.745,1090.75C933.049,1109.05 938.525,1136.58 928.619,1160.49C918.713,1184.41 895.376,1200 869.49,1200C775.192,1200 657.57,1200 576.396,1200C550.83,1200 526.311,1210.16 508.234,1228.23C490.156,1246.31 480,1270.83 480,1296.4C480,1296.5 480,1296.61 480,1296.71Z" style="fill:rgb(1,121,111);"/>
                </g>
                <g transform="matrix(0.954545,0,0,1,55.3066,16)">
                    <path d="M1280.69,1391.09C1226.41,1391.02 1182.44,1349 1182.44,1297.19C1182.44,1126.59 1182.44,769.682 1182.44,624C1182.44,588.654 1152.42,560 1115.39,560C1082.54,560 1044.3,560 1017.09,560C1010.58,560 1004.67,556.409 1001.91,550.786C999.147,545.164 1000.05,538.526 1004.21,533.757C1037.18,495.99 1097.48,426.919 1128.81,391.028C1141.55,376.437 1160.42,368 1180.32,368C1279.71,368 1590.34,368 1752.35,368C1779.02,368 1804.6,378.114 1823.46,396.118C1842.32,414.121 1852.92,438.539 1852.92,464L1852.92,464C1852.92,517.019 1807.89,560 1752.35,560C1661.23,560 1529.51,560 1450.63,560C1413.6,560 1383.58,588.654 1383.58,624C1383.58,768.501 1383.58,1120.82 1383.58,1293.1C1383.58,1319.11 1372.75,1344.05 1353.47,1362.43C1334.2,1380.81 1308.06,1391.12 1280.81,1391.09C1280.77,1391.09 1280.73,1391.09 1280.69,1391.09Z" style="fill:rgb(1,121,111);"/>
                </g>
            </g>
        </g>
    </g>
</svg>
