<?xml version="1.0" encoding="UTF-8" standalone="no"?>
<!DOCTYPE svg PUBLIC "-//W3C//DTD SVG 1.1//EN" "http://www.w3.org/Graphics/SVG/1.1/DTD/svg11.dtd">
<svg width="100%" height="100%" viewBox="0 0 2048 2048" version="1.1" xmlns="http://www.w3.org/2000/svg" xmlns:xlink="http://www.w3.org/1999/xlink" xml:space="preserve" xmlns:serif="http://www.serif.com/" style="fill-rule:evenodd;clip-rule:evenodd;stroke-linejoin:round;stroke-miterlimit:2;">
    <g transform="matrix(1,0,0,1,-7305.79,-16)">
        <g id="logo-a" transform="matrix(1,0,0,1,7305.79,16)">
            <rect x="0" y="0" width="2048" height="2048" style="fill:none;"/>
            <g id="logo" transform="matrix(1,0,0,1,-128,128)">
                <g transform="matrix(1,0,0,1,1.36424e-12,16)">
                    <path d="M959.987,368C939.902,394.741 928,427.979 928,463.998L928,464C928,500.019 939.902,533.259 959.988,560L794.51,560C768.624,560 745.287,575.593 735.381,599.508C725.475,623.423 730.951,650.951 749.255,669.255L1063.76,983.764C1099.77,1019.77 1120,1068.61 1120,1119.53L1120,1134.97C1120,1203.05 1092.89,1268.32 1044.66,1316.35C996.425,1364.39 931.047,1391.24 862.975,1390.97L572.727,1389.81C521.455,1389.6 480,1347.98 480,1296.71L480,1296.4C480,1270.83 490.156,1246.31 508.234,1228.23C526.311,1210.16 550.83,1200 576.396,1200L869.49,1200C895.376,1200 918.713,1184.41 928.619,1160.49C938.525,1136.58 933.049,1109.05 914.745,1090.75L600.236,776.236C564.229,740.229 544,691.393 544,640.471L544,624C544,482.615 658.615,368 800,368L959.987,368Z" style="fill:rgb(1,121,111);"/>
                </g>
                <g transform="matrix(0.954545,0,0,1,55.3066,16)">
                    <path d="M1280.69,1391.09C1226.41,1391.02 1182.44,1349 1182.44,1297.19L1182.44,368L1752.35,368C1807.89,368 1852.92,410.98 1852.92,463.998L1852.92,464C1852.92,517.019 1807.89,560 1752.35,560C1661.23,560 1529.51,560 1450.63,560C1413.6,560 1383.58,588.654 1383.58,624L1383.58,1293.1C1383.58,1319.11 1372.75,1344.05 1353.47,1362.43C1334.2,1380.81 1308.06,1391.12 1280.81,1391.09C1280.77,1391.09 1280.73,1391.09 1280.69,1391.09Z" style="fill:rgb(1,121,111);"/>
                </g>
                <g transform="matrix(-0.954545,0,0,1,2504.69,16.9132)">
                    <path d="M1280.69,1391.09C1226.41,1391.02 1182.44,1349 1182.44,1297.19L1182.44,368C1182.44,368 1297.05,367.087 1484.16,367.087C1539.7,367.087 1584.73,410.067 1584.73,463.085L1584.73,463.087C1584.73,516.106 1539.7,559.087 1484.15,559.087C1393.04,559.087 1529.51,560 1450.63,560C1413.6,560 1383.58,588.654 1383.58,624L1383.58,1293.1C1383.58,1319.11 1372.75,1344.05 1353.47,1362.43C1334.2,1380.81 1308.06,1391.12 1280.81,1391.09C1280.77,1391.09 1280.73,1391.09 1280.69,1391.09Z" style="fill:rgb(1,121,111);"/>
                </g>
            </g>
        </g>
    </g>
</svg>
