<svg id="Logo_FA" data-name="Logo FA" xmlns="http://www.w3.org/2000/svg" xmlns:xlink="http://www.w3.org/1999/xlink" width="142.746" height="40" viewBox="0 0 142.746 40">
  <defs>
    <clipPath id="clip-path">
      <rect id="Rectangle_96" data-name="Rectangle 96" width="142.746" height="40" fill="none"/>
    </clipPath>
  </defs>
  <g id="Group_2233" data-name="Group 2233" clip-path="url(#clip-path)">
    <path id="Path_9345" data-name="Path 9345" d="M215.181,34.916a10.285,10.285,0,0,0-8.792,15.538,3.29,3.29,0,0,1-1.294,4.5.277.277,0,0,0,.138.522,10.228,10.228,0,0,0,4.858-1.37,10.284,10.284,0,1,0,5.09-19.192m.076,15.872a5.588,5.588,0,1,1,5.589-5.588,5.595,5.595,0,0,1-5.589,5.588" transform="translate(-154.507 -26.322)" fill="#00aa61"/>
    <path id="Path_9346" data-name="Path 9346" d="M260.547,125.6a5.189,5.189,0,0,0,7.78,4.453,5.16,5.16,0,0,0,2.451.691.14.14,0,0,0,.07-.263,1.66,1.66,0,0,1-.653-2.272,5.188,5.188,0,1,0-9.648-2.61m2.354-.041a2.819,2.819,0,1,1,2.819,2.819,2.823,2.823,0,0,1-2.819-2.819" transform="translate(-196.423 -90.745)" fill="#017551"/>
    <path id="Path_9347" data-name="Path 9347" d="M18.6,27.807H7.619L5.236,34.019H0L10.745,6.669h4.689l10.784,27.35H20.943Zm-1.68-4.572L13.089,13.155,9.3,23.235Z" transform="translate(0 -5.028)" fill="#242b25"/>
    <path id="Path_9348" data-name="Path 9348" d="M126.054,56.878l-4.689-6.486-4.728,6.486h-5.978l7.815-10.159L111.05,36.99h5.939l4.376,6.017L125.7,36.99h5.939l-7.424,9.729,7.814,10.159Z" transform="translate(-83.424 -27.887)" fill="#242b25"/>
    <path id="Path_9349" data-name="Path 9349" d="M310.129,35.554v3.009a6.938,6.938,0,0,1,6.408-3.478c4.142,0,7.033,2.5,7.033,7.307v13.05H318.8V43.447c0-2.7-1.485-4.1-3.79-4.1-2.618,0-4.767,1.875-4.767,5.431V55.441h-4.767V35.554Z" transform="translate(-230.297 -26.45)" fill="#242b25"/>
    <path id="Path_9350" data-name="Path 9350" d="M404.019,3.126a3.227,3.227,0,0,1-6.447,0,3.225,3.225,0,0,1,6.447,0M398.393,9.1h4.767V28.991h-4.767Z" transform="translate(-299.724)" fill="#242b25"/>
    <path id="Path_9351" data-name="Path 9351" d="M466.557,10.54v9.69c0,3.4-2.11,5.431-4.884,5.431-2.462,0-4.1-1.6-4.1-4.337V10.54H444.362V9.25a2.731,2.731,0,0,1,2.93-3.008,4.333,4.333,0,0,1,2.852,1.016l1.914-3.634A9.035,9.035,0,0,0,446.668,1.9c-4.142,0-7.072,2.7-7.072,7.385v1.25h-3.751v4.3H439.6v15.59h4.767V14.838h8.4v7.346c0,5.157,3.438,7.736,7.541,7.736,2.892,0,5.2-1.289,6.252-3.477v3.594a4.892,4.892,0,0,1-5.236,5.275,5.515,5.515,0,0,1-5.627-4.1l-4.22,1.915c1.485,4.3,5.158,6.486,9.729,6.486,5.509,0,10.12-3.555,10.12-10.12V10.54Z" transform="translate(-328.578 -1.436)" fill="#242b25"/>
  </g>
</svg>